<svg width="795" height="795" viewBox="0 0 795 795" fill="none" xmlns="http://www.w3.org/2000/svg">
<g clip-path="url(#clip0_91_2)">
<rect width="795" height="795" fill="white"/>
<rect width="795" height="795" fill="#161616"/>
<path d="M412 361H199V282.439C205.956 282.108 236.894 281.644 305.004 282.439C373.114 283.235 412 337 412 361Z" fill="#FFA7E1"/>
<path d="M368.5 282H593.5V360.561C586.544 360.892 555.606 361.356 487.496 360.561C419.386 359.765 449.5 290.5 368.5 282Z" fill="#FFECA7"/>
<path d="M241.875 413.75C250.208 413.75 256.917 416.25 262 421.25C267.167 426.25 269.75 433.667 269.75 443.5V482H250.25V446.5C250.25 441.167 249.083 437.208 246.75 434.625C244.417 431.958 241.042 430.625 236.625 430.625C231.708 430.625 227.792 432.167 224.875 435.25C221.958 438.25 220.5 442.75 220.5 448.75V482H201V389.25H220.5V421.75C223.083 419.167 226.208 417.208 229.875 415.875C233.542 414.458 237.542 413.75 241.875 413.75ZM352.955 414.75L322.58 486.125C319.497 493.875 315.663 499.333 311.08 502.5C306.58 505.667 301.122 507.25 294.705 507.25C291.205 507.25 287.747 506.708 284.33 505.625C280.913 504.542 278.122 503.042 275.955 501.125L283.08 487.25C284.58 488.583 286.288 489.625 288.205 490.375C290.205 491.125 292.163 491.5 294.08 491.5C296.747 491.5 298.913 490.833 300.58 489.5C302.247 488.25 303.747 486.125 305.08 483.125L305.33 482.5L276.205 414.75H296.33L315.205 460.375L334.205 414.75H352.955ZM400.662 413.75C406.912 413.75 412.579 415.208 417.662 418.125C422.829 420.958 426.87 425 429.787 430.25C432.704 435.417 434.162 441.458 434.162 448.375C434.162 455.292 432.704 461.375 429.787 466.625C426.87 471.792 422.829 475.833 417.662 478.75C412.579 481.583 406.912 483 400.662 483C392.079 483 385.329 480.292 380.412 474.875V506.25H360.912V414.75H379.537V422.5C384.37 416.667 391.412 413.75 400.662 413.75ZM397.287 467C402.287 467 406.37 465.333 409.537 462C412.787 458.583 414.412 454.042 414.412 448.375C414.412 442.708 412.787 438.208 409.537 434.875C406.37 431.458 402.287 429.75 397.287 429.75C392.287 429.75 388.162 431.458 384.912 434.875C381.745 438.208 380.162 442.708 380.162 448.375C380.162 454.042 381.745 458.583 384.912 462C388.162 465.333 392.287 467 397.287 467ZM513.091 448.625C513.091 448.875 512.966 450.625 512.716 453.875H461.841C462.757 458.042 464.924 461.333 468.341 463.75C471.757 466.167 476.007 467.375 481.091 467.375C484.591 467.375 487.674 466.875 490.341 465.875C493.091 464.792 495.632 463.125 497.966 460.875L508.341 472.125C502.007 479.375 492.757 483 480.591 483C473.007 483 466.299 481.542 460.466 478.625C454.632 475.625 450.132 471.5 446.966 466.25C443.799 461 442.216 455.042 442.216 448.375C442.216 441.792 443.757 435.875 446.841 430.625C450.007 425.292 454.299 421.167 459.716 418.25C465.216 415.25 471.341 413.75 478.091 413.75C484.674 413.75 490.632 415.167 495.966 418C501.299 420.833 505.466 424.917 508.466 430.25C511.549 435.5 513.091 441.625 513.091 448.625ZM478.216 428.5C473.799 428.5 470.091 429.75 467.091 432.25C464.091 434.75 462.257 438.167 461.591 442.5H494.716C494.049 438.25 492.216 434.875 489.216 432.375C486.216 429.792 482.549 428.5 478.216 428.5ZM566.948 413.75C575.282 413.75 581.99 416.25 587.073 421.25C592.24 426.25 594.823 433.667 594.823 443.5V482H575.323V446.5C575.323 441.167 574.157 437.208 571.823 434.625C569.49 431.958 566.115 430.625 561.698 430.625C556.782 430.625 552.865 432.167 549.948 435.25C547.032 438.25 545.573 442.75 545.573 448.75V482H526.073V414.75H544.698V422.625C547.282 419.792 550.49 417.625 554.323 416.125C558.157 414.542 562.365 413.75 566.948 413.75Z" fill="white"/>
</g>
<defs>
<clipPath id="clip0_91_2">
<rect width="795" height="795" fill="white"/>
</clipPath>
</defs>
</svg>
