<svg width="2365" height="1077" viewBox="0 0 2365 1077" fill="none" xmlns="http://www.w3.org/2000/svg">
<path d="M1555.46 174L252 174V95.4393C258.956 95.1078 1380.35 94.6437 1448.46 95.4393C1516.57 96.2348 1555.46 150 1555.46 174Z" fill="#FFA7E1"/>
<path d="M678.956 711H252V632.439C258.956 632.108 503.85 631.644 571.96 632.439C640.069 633.235 678.956 687 678.956 711Z" fill="#FFA7E1"/>
<path d="M1172.46 353L252 353V274.439C258.956 274.108 1010.35 273.644 1078.46 274.439C1146.57 275.235 1172.46 329 1172.46 353Z" fill="#FFA7E1"/>
<path d="M1150 274L1745 274V352.561C1738.04 352.892 1342.11 353.356 1274 352.561C1205.89 351.765 1231 282.5 1150 274Z" fill="#FFECA7"/>
<path d="M1520 95L2115 95V173.561C2108.04 173.892 1712.11 174.356 1644 173.561C1575.89 172.765 1601 103.5 1520 95Z" fill="#FFECA7"/>
<path d="M1520 453L2115 453V531.561C2108.04 531.892 1712.11 532.356 1644 531.561C1575.89 530.765 1601 461.5 1520 453Z" fill="#FFECA7"/>
<path d="M1520 274L2115 274V352.561C2108.04 352.892 1712.11 353.356 1644 352.561C1575.89 351.765 1601 282.5 1520 274Z" fill="#FFECA7"/>
<path d="M1520 632H2115V710.561C2108.04 710.892 1712.11 711.356 1644 710.561C1575.89 709.765 1601 640.5 1520 632Z" fill="#FFECA7"/>
<path d="M1520 811H2115V889.561C2108.04 889.892 1712.11 890.356 1644 889.561C1575.89 888.765 1601 819.5 1520 811Z" fill="#FFECA7"/>
<path d="M1520 990H2115V1068.56C2108.04 1068.89 1712.11 1069.36 1644 1068.56C1575.89 1067.77 1601 998.5 1520 990Z" fill="#FFECA7"/>
<path d="M645 632L1745 632V710.561C1738.04 710.892 832.106 711.356 763.996 710.561C695.886 709.765 726 640.5 645 632Z" fill="#FFECA7"/>
<path d="M678.956 890H252V811.439C258.956 811.108 503.85 810.644 571.96 811.439C640.069 812.235 678.956 866 678.956 890Z" fill="#FFA7E1"/>
<path d="M645 811L1745 811V889.561C1738.04 889.892 832.106 890.356 763.996 889.561C695.886 888.765 726 819.5 645 811Z" fill="#FFECA7"/>
<path d="M678.956 1069H252V990.439C258.956 990.108 503.85 989.644 571.96 990.439C640.069 991.235 678.956 1045 678.956 1069Z" fill="#FFA7E1"/>
<path d="M645 990L1745 990V1068.56C1738.04 1068.89 832.106 1069.36 763.996 1068.56C695.886 1067.77 726 998.5 645 990Z" fill="#FFECA7"/>
<path d="M299.756 117.8C302.608 117.8 305.077 118.275 307.162 119.226C309.278 120.177 310.903 121.526 312.038 123.274C313.173 125.022 313.74 127.092 313.74 129.484C313.74 131.845 313.173 133.915 312.038 135.694C310.903 137.442 309.278 138.791 307.162 139.742C305.077 140.662 302.608 141.122 299.756 141.122H293.27V150H285.818V117.8H299.756ZM299.342 135.05C301.581 135.05 303.283 134.575 304.448 133.624C305.613 132.643 306.196 131.263 306.196 129.484C306.196 127.675 305.613 126.295 304.448 125.344C303.283 124.363 301.581 123.872 299.342 123.872H293.27V135.05H299.342ZM328.312 124.884C332.145 124.884 335.089 125.804 337.144 127.644C339.198 129.453 340.226 132.198 340.226 135.878V150H333.51V146.918C332.16 149.218 329.646 150.368 325.966 150.368C324.064 150.368 322.408 150.046 320.998 149.402C319.618 148.758 318.56 147.869 317.824 146.734C317.088 145.599 316.72 144.311 316.72 142.87C316.72 140.57 317.578 138.761 319.296 137.442C321.044 136.123 323.727 135.464 327.346 135.464H333.05C333.05 133.9 332.574 132.704 331.624 131.876C330.673 131.017 329.247 130.588 327.346 130.588C326.027 130.588 324.724 130.803 323.436 131.232C322.178 131.631 321.105 132.183 320.216 132.888L317.64 127.874C318.989 126.923 320.599 126.187 322.47 125.666C324.371 125.145 326.318 124.884 328.312 124.884ZM327.76 145.538C328.986 145.538 330.075 145.262 331.026 144.71C331.976 144.127 332.651 143.284 333.05 142.18V139.65H328.128C325.184 139.65 323.712 140.616 323.712 142.548C323.712 143.468 324.064 144.204 324.77 144.756C325.506 145.277 326.502 145.538 327.76 145.538ZM353.574 128.518C354.433 127.322 355.583 126.417 357.024 125.804C358.496 125.191 360.183 124.884 362.084 124.884V131.508C361.287 131.447 360.75 131.416 360.474 131.416C358.42 131.416 356.81 131.999 355.644 133.164C354.479 134.299 353.896 136.016 353.896 138.316V150H346.72V125.252H353.574V128.518ZM374.767 150.368C372.712 150.368 370.704 150.123 368.741 149.632C366.778 149.111 365.214 148.467 364.049 147.7L366.441 142.548C367.545 143.253 368.879 143.836 370.443 144.296C372.007 144.725 373.54 144.94 375.043 144.94C378.079 144.94 379.597 144.189 379.597 142.686C379.597 141.981 379.183 141.475 378.355 141.168C377.527 140.861 376.254 140.601 374.537 140.386C372.513 140.079 370.842 139.727 369.523 139.328C368.204 138.929 367.054 138.224 366.073 137.212C365.122 136.2 364.647 134.759 364.647 132.888C364.647 131.324 365.092 129.944 365.981 128.748C366.901 127.521 368.22 126.571 369.937 125.896C371.685 125.221 373.74 124.884 376.101 124.884C377.849 124.884 379.582 125.083 381.299 125.482C383.047 125.85 384.488 126.371 385.623 127.046L383.231 132.152C381.054 130.925 378.677 130.312 376.101 130.312C374.568 130.312 373.418 130.527 372.651 130.956C371.884 131.385 371.501 131.937 371.501 132.612C371.501 133.379 371.915 133.915 372.743 134.222C373.571 134.529 374.89 134.82 376.699 135.096C378.723 135.433 380.379 135.801 381.667 136.2C382.955 136.568 384.074 137.258 385.025 138.27C385.976 139.282 386.451 140.693 386.451 142.502C386.451 144.035 385.991 145.4 385.071 146.596C384.151 147.792 382.802 148.727 381.023 149.402C379.275 150.046 377.19 150.368 374.767 150.368ZM415.12 137.718C415.12 137.81 415.074 138.454 414.982 139.65H396.26C396.598 141.183 397.395 142.395 398.652 143.284C399.91 144.173 401.474 144.618 403.344 144.618C404.632 144.618 405.767 144.434 406.748 144.066C407.76 143.667 408.696 143.054 409.554 142.226L413.372 146.366C411.042 149.034 407.638 150.368 403.16 150.368C400.37 150.368 397.901 149.831 395.754 148.758C393.608 147.654 391.952 146.136 390.786 144.204C389.621 142.272 389.038 140.079 389.038 137.626C389.038 135.203 389.606 133.026 390.74 131.094C391.906 129.131 393.485 127.613 395.478 126.54C397.502 125.436 399.756 124.884 402.24 124.884C404.663 124.884 406.856 125.405 408.818 126.448C410.781 127.491 412.314 128.993 413.418 130.956C414.553 132.888 415.12 135.142 415.12 137.718ZM402.286 130.312C400.661 130.312 399.296 130.772 398.192 131.692C397.088 132.612 396.414 133.869 396.168 135.464H408.358C408.113 133.9 407.438 132.658 406.334 131.738C405.23 130.787 403.881 130.312 402.286 130.312ZM426.752 128.518C427.611 127.322 428.761 126.417 430.202 125.804C431.674 125.191 433.361 124.884 435.262 124.884V131.508C434.465 131.447 433.928 131.416 433.652 131.416C431.597 131.416 429.987 131.999 428.822 133.164C427.657 134.299 427.074 136.016 427.074 138.316V150H419.898V125.252H426.752V128.518Z" fill="#1E1E1E"/>
<path d="M334.486 297.8L323.952 330H315.948L308.864 308.196L301.55 330H293.592L283.012 297.8H290.74L298.008 320.432L305.598 297.8H312.498L319.858 320.616L327.356 297.8H334.486ZM358.774 323.1H343.824L340.972 330H333.336L347.688 297.8H355.048L369.446 330H361.626L358.774 323.1ZM356.428 317.442L351.322 305.114L346.216 317.442H356.428ZM383.367 330.552C380.821 330.552 378.353 330.215 375.961 329.54C373.599 328.835 371.698 327.93 370.257 326.826L372.787 321.214C374.167 322.226 375.807 323.039 377.709 323.652C379.61 324.265 381.511 324.572 383.413 324.572C385.529 324.572 387.093 324.265 388.105 323.652C389.117 323.008 389.623 322.165 389.623 321.122C389.623 320.355 389.316 319.727 388.703 319.236C388.12 318.715 387.353 318.301 386.403 317.994C385.483 317.687 384.225 317.35 382.631 316.982C380.177 316.399 378.169 315.817 376.605 315.234C375.041 314.651 373.691 313.716 372.557 312.428C371.453 311.14 370.901 309.423 370.901 307.276C370.901 305.405 371.407 303.719 372.419 302.216C373.431 300.683 374.949 299.471 376.973 298.582C379.027 297.693 381.527 297.248 384.471 297.248C386.525 297.248 388.534 297.493 390.497 297.984C392.459 298.475 394.177 299.18 395.649 300.1L393.349 305.758C390.374 304.071 387.399 303.228 384.425 303.228C382.339 303.228 380.791 303.565 379.779 304.24C378.797 304.915 378.307 305.804 378.307 306.908C378.307 308.012 378.874 308.84 380.009 309.392C381.174 309.913 382.937 310.435 385.299 310.956C387.752 311.539 389.761 312.121 391.325 312.704C392.889 313.287 394.223 314.207 395.327 315.464C396.461 316.721 397.029 318.423 397.029 320.57C397.029 322.41 396.507 324.097 395.465 325.63C394.453 327.133 392.919 328.329 390.865 329.218C388.81 330.107 386.311 330.552 383.367 330.552ZM431.423 330L431.377 310.68L421.901 326.596H418.543L409.113 311.094V330H402.121V297.8H408.285L420.337 317.81L432.205 297.8H438.323L438.415 330H431.423ZM484.014 324.02V330H459.082V297.8H483.416V303.78H466.488V310.772H481.438V316.568H466.488V324.02H484.014ZM504.479 304.884C507.546 304.884 510.014 305.804 511.885 307.644C513.786 309.484 514.737 312.213 514.737 315.832V330H507.561V316.936C507.561 314.973 507.132 313.517 506.273 312.566C505.414 311.585 504.172 311.094 502.547 311.094C500.738 311.094 499.296 311.661 498.223 312.796C497.15 313.9 496.613 315.556 496.613 317.764V330H489.437V305.252H496.291V308.15C497.242 307.107 498.422 306.31 499.833 305.758C501.244 305.175 502.792 304.884 504.479 304.884ZM547.041 305.252V325.86C547.041 330.399 545.861 333.772 543.499 335.98C541.138 338.188 537.688 339.292 533.149 339.292C530.757 339.292 528.488 339.001 526.341 338.418C524.195 337.835 522.416 336.992 521.005 335.888L523.857 330.736C524.9 331.595 526.219 332.269 527.813 332.76C529.408 333.281 531.003 333.542 532.597 333.542C535.081 333.542 536.906 332.975 538.071 331.84C539.267 330.736 539.865 329.049 539.865 326.78V325.722C537.995 327.777 535.388 328.804 532.045 328.804C529.776 328.804 527.691 328.313 525.789 327.332C523.919 326.32 522.431 324.909 521.327 323.1C520.223 321.291 519.671 319.205 519.671 316.844C519.671 314.483 520.223 312.397 521.327 310.588C522.431 308.779 523.919 307.383 525.789 306.402C527.691 305.39 529.776 304.884 532.045 304.884C535.633 304.884 538.363 306.065 540.233 308.426V305.252H547.041ZM533.471 322.916C535.373 322.916 536.921 322.364 538.117 321.26C539.344 320.125 539.957 318.653 539.957 316.844C539.957 315.035 539.344 313.578 538.117 312.474C536.921 311.339 535.373 310.772 533.471 310.772C531.57 310.772 530.006 311.339 528.779 312.474C527.553 313.578 526.939 315.035 526.939 316.844C526.939 318.653 527.553 320.125 528.779 321.26C530.006 322.364 531.57 322.916 533.471 322.916ZM553.72 305.252H560.896V330H553.72V305.252ZM557.308 301.802C555.99 301.802 554.916 301.419 554.088 300.652C553.26 299.885 552.846 298.935 552.846 297.8C552.846 296.665 553.26 295.715 554.088 294.948C554.916 294.181 555.99 293.798 557.308 293.798C558.627 293.798 559.7 294.166 560.528 294.902C561.356 295.638 561.77 296.558 561.77 297.662C561.77 298.858 561.356 299.855 560.528 300.652C559.7 301.419 558.627 301.802 557.308 301.802ZM582.598 304.884C585.665 304.884 588.133 305.804 590.004 307.644C591.905 309.484 592.856 312.213 592.856 315.832V330H585.68V316.936C585.68 314.973 585.251 313.517 584.392 312.566C583.533 311.585 582.291 311.094 580.666 311.094C578.857 311.094 577.415 311.661 576.342 312.796C575.269 313.9 574.732 315.556 574.732 317.764V330H567.556V305.252H574.41V308.15C575.361 307.107 576.541 306.31 577.952 305.758C579.363 305.175 580.911 304.884 582.598 304.884ZM623.872 317.718C623.872 317.81 623.826 318.454 623.734 319.65H605.012C605.35 321.183 606.147 322.395 607.404 323.284C608.662 324.173 610.226 324.618 612.096 324.618C613.384 324.618 614.519 324.434 615.5 324.066C616.512 323.667 617.448 323.054 618.306 322.226L622.124 326.366C619.794 329.034 616.39 330.368 611.912 330.368C609.122 330.368 606.653 329.831 604.506 328.758C602.36 327.654 600.704 326.136 599.538 324.204C598.373 322.272 597.79 320.079 597.79 317.626C597.79 315.203 598.358 313.026 599.492 311.094C600.658 309.131 602.237 307.613 604.23 306.54C606.254 305.436 608.508 304.884 610.992 304.884C613.415 304.884 615.608 305.405 617.57 306.448C619.533 307.491 621.066 308.993 622.17 310.956C623.305 312.888 623.872 315.142 623.872 317.718ZM611.038 310.312C609.413 310.312 608.048 310.772 606.944 311.692C605.84 312.612 605.166 313.869 604.92 315.464H617.11C616.865 313.9 616.19 312.658 615.086 311.738C613.982 310.787 612.633 310.312 611.038 310.312Z" fill="#1E1E1E"/>
<path d="M1172.46 532L252 532V453.439C258.956 453.108 1010.35 452.644 1078.46 453.439C1146.57 454.235 1172.46 508 1172.46 532Z" fill="#FFA7E1"/>
<path d="M1150 453L1745 453V531.561C1738.04 531.892 1342.11 532.356 1274 531.561C1205.89 530.765 1231 461.5 1150 453Z" fill="#FFECA7"/>
<path d="M334.486 476.8L323.952 509H315.948L308.864 487.196L301.55 509H293.592L283.012 476.8H290.74L298.008 499.432L305.598 476.8H312.498L319.858 499.616L327.356 476.8H334.486ZM360.54 496.718C360.54 496.81 360.494 497.454 360.402 498.65H341.68C342.018 500.183 342.815 501.395 344.072 502.284C345.33 503.173 346.894 503.618 348.764 503.618C350.052 503.618 351.187 503.434 352.168 503.066C353.18 502.667 354.116 502.054 354.974 501.226L358.792 505.366C356.462 508.034 353.058 509.368 348.58 509.368C345.79 509.368 343.321 508.831 341.174 507.758C339.028 506.654 337.372 505.136 336.206 503.204C335.041 501.272 334.458 499.079 334.458 496.626C334.458 494.203 335.026 492.026 336.16 490.094C337.326 488.131 338.905 486.613 340.898 485.54C342.922 484.436 345.176 483.884 347.66 483.884C350.083 483.884 352.276 484.405 354.238 485.448C356.201 486.491 357.734 487.993 358.838 489.956C359.973 491.888 360.54 494.142 360.54 496.718ZM347.706 489.312C346.081 489.312 344.716 489.772 343.612 490.692C342.508 491.612 341.834 492.869 341.588 494.464H353.778C353.533 492.9 352.858 491.658 351.754 490.738C350.65 489.787 349.301 489.312 347.706 489.312ZM379.946 483.884C382.246 483.884 384.331 484.421 386.202 485.494C388.103 486.537 389.591 488.024 390.664 489.956C391.737 491.857 392.274 494.081 392.274 496.626C392.274 499.171 391.737 501.41 390.664 503.342C389.591 505.243 388.103 506.731 386.202 507.804C384.331 508.847 382.246 509.368 379.946 509.368C376.542 509.368 373.951 508.295 372.172 506.148V509H365.318V474.868H372.494V486.874C374.303 484.881 376.787 483.884 379.946 483.884ZM378.704 503.48C380.544 503.48 382.047 502.867 383.212 501.64C384.408 500.383 385.006 498.711 385.006 496.626C385.006 494.541 384.408 492.885 383.212 491.658C382.047 490.401 380.544 489.772 378.704 489.772C376.864 489.772 375.346 490.401 374.15 491.658C372.985 492.885 372.402 494.541 372.402 496.626C372.402 498.711 372.985 500.383 374.15 501.64C375.346 502.867 376.864 503.48 378.704 503.48ZM421.191 509.552C418.646 509.552 416.177 509.215 413.785 508.54C411.424 507.835 409.522 506.93 408.081 505.826L410.611 500.214C411.991 501.226 413.632 502.039 415.533 502.652C417.434 503.265 419.336 503.572 421.237 503.572C423.353 503.572 424.917 503.265 425.929 502.652C426.941 502.008 427.447 501.165 427.447 500.122C427.447 499.355 427.14 498.727 426.527 498.236C425.944 497.715 425.178 497.301 424.227 496.994C423.307 496.687 422.05 496.35 420.455 495.982C418.002 495.399 415.993 494.817 414.429 494.234C412.865 493.651 411.516 492.716 410.381 491.428C409.277 490.14 408.725 488.423 408.725 486.276C408.725 484.405 409.231 482.719 410.243 481.216C411.255 479.683 412.773 478.471 414.797 477.582C416.852 476.693 419.351 476.248 422.295 476.248C424.35 476.248 426.358 476.493 428.321 476.984C430.284 477.475 432.001 478.18 433.473 479.1L431.173 484.758C428.198 483.071 425.224 482.228 422.249 482.228C420.164 482.228 418.615 482.565 417.603 483.24C416.622 483.915 416.131 484.804 416.131 485.908C416.131 487.012 416.698 487.84 417.833 488.392C418.998 488.913 420.762 489.435 423.123 489.956C425.576 490.539 427.585 491.121 429.149 491.704C430.713 492.287 432.047 493.207 433.151 494.464C434.286 495.721 434.853 497.423 434.853 499.57C434.853 501.41 434.332 503.097 433.289 504.63C432.277 506.133 430.744 507.329 428.689 508.218C426.634 509.107 424.135 509.552 421.191 509.552ZM439.945 476.8H454.573C458.069 476.8 461.151 477.475 463.819 478.824C466.518 480.143 468.603 482.013 470.075 484.436C471.578 486.859 472.329 489.68 472.329 492.9C472.329 496.12 471.578 498.941 470.075 501.364C468.603 503.787 466.518 505.673 463.819 507.022C461.151 508.341 458.069 509 454.573 509H439.945V476.8ZM454.205 502.882C457.425 502.882 459.986 501.993 461.887 500.214C463.819 498.405 464.785 495.967 464.785 492.9C464.785 489.833 463.819 487.411 461.887 485.632C459.986 483.823 457.425 482.918 454.205 482.918H447.397V502.882H454.205ZM489.679 496.35L485.355 500.858V509H477.949V476.8H485.355V491.842L499.615 476.8H507.895L494.555 491.152L508.677 509H499.983L489.679 496.35Z" fill="#1E1E1E"/>
<path d="M315.12 688L315.074 668.68L305.598 684.596H302.24L292.81 669.094V688H285.818V655.8H291.982L304.034 675.81L315.902 655.8H322.02L322.112 688H315.12ZM341.022 688.368C338.415 688.368 336.069 687.831 333.984 686.758C331.929 685.654 330.319 684.136 329.154 682.204C327.988 680.272 327.406 678.079 327.406 675.626C327.406 673.173 327.988 670.98 329.154 669.048C330.319 667.116 331.929 665.613 333.984 664.54C336.069 663.436 338.415 662.884 341.022 662.884C343.628 662.884 345.959 663.436 348.014 664.54C350.068 665.613 351.678 667.116 352.844 669.048C354.009 670.98 354.592 673.173 354.592 675.626C354.592 678.079 354.009 680.272 352.844 682.204C351.678 684.136 350.068 685.654 348.014 686.758C345.959 687.831 343.628 688.368 341.022 688.368ZM341.022 682.48C342.862 682.48 344.364 681.867 345.53 680.64C346.726 679.383 347.324 677.711 347.324 675.626C347.324 673.541 346.726 671.885 345.53 670.658C344.364 669.401 342.862 668.772 341.022 668.772C339.182 668.772 337.664 669.401 336.468 670.658C335.272 671.885 334.674 673.541 334.674 675.626C334.674 677.711 335.272 679.383 336.468 680.64C337.664 681.867 339.182 682.48 341.022 682.48ZM374.016 662.884C376.316 662.884 378.402 663.421 380.272 664.494C382.174 665.537 383.661 667.024 384.734 668.956C385.808 670.857 386.344 673.081 386.344 675.626C386.344 678.171 385.808 680.41 384.734 682.342C383.661 684.243 382.174 685.731 380.272 686.804C378.402 687.847 376.316 688.368 374.016 688.368C370.612 688.368 368.021 687.295 366.242 685.148V688H359.388V653.868H366.564V665.874C368.374 663.881 370.858 662.884 374.016 662.884ZM372.774 682.48C374.614 682.48 376.117 681.867 377.282 680.64C378.478 679.383 379.076 677.711 379.076 675.626C379.076 673.541 378.478 671.885 377.282 670.658C376.117 669.401 374.614 668.772 372.774 668.772C370.934 668.772 369.416 669.401 368.22 670.658C367.055 671.885 366.472 673.541 366.472 675.626C366.472 677.711 367.055 679.383 368.22 680.64C369.416 681.867 370.934 682.48 372.774 682.48ZM391.148 663.252H398.324V688H391.148V663.252ZM394.736 659.802C393.417 659.802 392.344 659.419 391.516 658.652C390.688 657.885 390.274 656.935 390.274 655.8C390.274 654.665 390.688 653.715 391.516 652.948C392.344 652.181 393.417 651.798 394.736 651.798C396.055 651.798 397.128 652.166 397.956 652.902C398.784 653.638 399.198 654.558 399.198 655.662C399.198 656.858 398.784 657.855 397.956 658.652C397.128 659.419 396.055 659.802 394.736 659.802ZM404.984 653.868H412.16V688H404.984V653.868ZM443.062 675.718C443.062 675.81 443.016 676.454 442.924 677.65H424.202C424.539 679.183 425.336 680.395 426.594 681.284C427.851 682.173 429.415 682.618 431.286 682.618C432.574 682.618 433.708 682.434 434.69 682.066C435.702 681.667 436.637 681.054 437.496 680.226L441.314 684.366C438.983 687.034 435.579 688.368 431.102 688.368C428.311 688.368 425.842 687.831 423.696 686.758C421.549 685.654 419.893 684.136 418.728 682.204C417.562 680.272 416.98 678.079 416.98 675.626C416.98 673.203 417.547 671.026 418.682 669.094C419.847 667.131 421.426 665.613 423.42 664.54C425.444 663.436 427.698 662.884 430.182 662.884C432.604 662.884 434.797 663.405 436.76 664.448C438.722 665.491 440.256 666.993 441.36 668.956C442.494 670.888 443.062 673.142 443.062 675.718ZM430.228 668.312C428.602 668.312 427.238 668.772 426.134 669.692C425.03 670.612 424.355 671.869 424.11 673.464H436.3C436.054 671.9 435.38 670.658 434.276 669.738C433.172 668.787 431.822 668.312 430.228 668.312ZM471.953 688.552C469.407 688.552 466.939 688.215 464.547 687.54C462.185 686.835 460.284 685.93 458.843 684.826L461.373 679.214C462.753 680.226 464.393 681.039 466.295 681.652C468.196 682.265 470.097 682.572 471.999 682.572C474.115 682.572 475.679 682.265 476.691 681.652C477.703 681.008 478.209 680.165 478.209 679.122C478.209 678.355 477.902 677.727 477.289 677.236C476.706 676.715 475.939 676.301 474.989 675.994C474.069 675.687 472.811 675.35 471.217 674.982C468.763 674.399 466.755 673.817 465.191 673.234C463.627 672.651 462.277 671.716 461.143 670.428C460.039 669.14 459.487 667.423 459.487 665.276C459.487 663.405 459.993 661.719 461.005 660.216C462.017 658.683 463.535 657.471 465.559 656.582C467.613 655.693 470.113 655.248 473.057 655.248C475.111 655.248 477.12 655.493 479.083 655.984C481.045 656.475 482.763 657.18 484.235 658.1L481.935 663.758C478.96 662.071 475.985 661.228 473.011 661.228C470.925 661.228 469.377 661.565 468.365 662.24C467.383 662.915 466.893 663.804 466.893 664.908C466.893 666.012 467.46 666.84 468.595 667.392C469.76 667.913 471.523 668.435 473.885 668.956C476.338 669.539 478.347 670.121 479.911 670.704C481.475 671.287 482.809 672.207 483.913 673.464C485.047 674.721 485.615 676.423 485.615 678.57C485.615 680.41 485.093 682.097 484.051 683.63C483.039 685.133 481.505 686.329 479.451 687.218C477.396 688.107 474.897 688.552 471.953 688.552ZM490.707 655.8H505.335C508.831 655.8 511.913 656.475 514.581 657.824C517.279 659.143 519.365 661.013 520.837 663.436C522.339 665.859 523.091 668.68 523.091 671.9C523.091 675.12 522.339 677.941 520.837 680.364C519.365 682.787 517.279 684.673 514.581 686.022C511.913 687.341 508.831 688 505.335 688H490.707V655.8ZM504.967 681.882C508.187 681.882 510.747 680.993 512.649 679.214C514.581 677.405 515.547 674.967 515.547 671.9C515.547 668.833 514.581 666.411 512.649 664.632C510.747 662.823 508.187 661.918 504.967 661.918H498.159V681.882H504.967ZM540.441 675.35L536.117 679.858V688H528.711V655.8H536.117V670.842L550.377 655.8H558.657L545.317 670.152L559.439 688H550.745L540.441 675.35Z" fill="#1E1E1E"/>
<path d="M285.818 834.8H300.446C303.942 834.8 307.024 835.475 309.692 836.824C312.391 838.143 314.476 840.013 315.948 842.436C317.451 844.859 318.202 847.68 318.202 850.9C318.202 854.12 317.451 856.941 315.948 859.364C314.476 861.787 312.391 863.673 309.692 865.022C307.024 866.341 303.942 867 300.446 867H285.818V834.8ZM300.078 860.882C303.298 860.882 305.859 859.993 307.76 858.214C309.692 856.405 310.658 853.967 310.658 850.9C310.658 847.833 309.692 845.411 307.76 843.632C305.859 841.823 303.298 840.918 300.078 840.918H293.27V860.882H300.078ZM347.558 854.718C347.558 854.81 347.512 855.454 347.42 856.65H328.698C329.035 858.183 329.833 859.395 331.09 860.284C332.347 861.173 333.911 861.618 335.782 861.618C337.07 861.618 338.205 861.434 339.186 861.066C340.198 860.667 341.133 860.054 341.992 859.226L345.81 863.366C343.479 866.034 340.075 867.368 335.598 867.368C332.807 867.368 330.339 866.831 328.192 865.758C326.045 864.654 324.389 863.136 323.224 861.204C322.059 859.272 321.476 857.079 321.476 854.626C321.476 852.203 322.043 850.026 323.178 848.094C324.343 846.131 325.923 844.613 327.916 843.54C329.94 842.436 332.194 841.884 334.678 841.884C337.101 841.884 339.293 842.405 341.256 843.448C343.219 844.491 344.752 845.993 345.856 847.956C346.991 849.888 347.558 852.142 347.558 854.718ZM334.724 847.312C333.099 847.312 331.734 847.772 330.63 848.692C329.526 849.612 328.851 850.869 328.606 852.464H340.796C340.551 850.9 339.876 849.658 338.772 848.738C337.668 847.787 336.319 847.312 334.724 847.312ZM360.661 867.368C358.607 867.368 356.598 867.123 354.635 866.632C352.673 866.111 351.109 865.467 349.943 864.7L352.335 859.548C353.439 860.253 354.773 860.836 356.337 861.296C357.901 861.725 359.435 861.94 360.937 861.94C363.973 861.94 365.491 861.189 365.491 859.686C365.491 858.981 365.077 858.475 364.249 858.168C363.421 857.861 362.149 857.601 360.431 857.386C358.407 857.079 356.736 856.727 355.417 856.328C354.099 855.929 352.949 855.224 351.967 854.212C351.017 853.2 350.541 851.759 350.541 849.888C350.541 848.324 350.986 846.944 351.875 845.748C352.795 844.521 354.114 843.571 355.831 842.896C357.579 842.221 359.634 841.884 361.995 841.884C363.743 841.884 365.476 842.083 367.193 842.482C368.941 842.85 370.383 843.371 371.517 844.046L369.125 849.152C366.948 847.925 364.571 847.312 361.995 847.312C360.462 847.312 359.312 847.527 358.545 847.956C357.779 848.385 357.395 848.937 357.395 849.612C357.395 850.379 357.809 850.915 358.637 851.222C359.465 851.529 360.784 851.82 362.593 852.096C364.617 852.433 366.273 852.801 367.561 853.2C368.849 853.568 369.969 854.258 370.919 855.27C371.87 856.282 372.345 857.693 372.345 859.502C372.345 861.035 371.885 862.4 370.965 863.596C370.045 864.792 368.696 865.727 366.917 866.402C365.169 867.046 363.084 867.368 360.661 867.368ZM387.399 857.294L383.949 860.698V867H376.773V832.868H383.949V852.188L394.437 842.252H402.993L392.689 852.74L403.913 867H395.219L387.399 857.294ZM423.102 865.804C422.397 866.325 421.523 866.724 420.48 867C419.468 867.245 418.395 867.368 417.26 867.368C414.316 867.368 412.031 866.617 410.406 865.114C408.811 863.611 408.014 861.403 408.014 858.49V848.324H404.196V842.804H408.014V836.778H415.19V842.804H421.354V848.324H415.19V858.398C415.19 859.441 415.451 860.253 415.972 860.836C416.524 861.388 417.291 861.664 418.272 861.664C419.407 861.664 420.373 861.357 421.17 860.744L423.102 865.804ZM438.143 867.368C435.536 867.368 433.19 866.831 431.105 865.758C429.05 864.654 427.44 863.136 426.275 861.204C425.109 859.272 424.527 857.079 424.527 854.626C424.527 852.173 425.109 849.98 426.275 848.048C427.44 846.116 429.05 844.613 431.105 843.54C433.19 842.436 435.536 841.884 438.143 841.884C440.749 841.884 443.08 842.436 445.135 843.54C447.189 844.613 448.799 846.116 449.965 848.048C451.13 849.98 451.713 852.173 451.713 854.626C451.713 857.079 451.13 859.272 449.965 861.204C448.799 863.136 447.189 864.654 445.135 865.758C443.08 866.831 440.749 867.368 438.143 867.368ZM438.143 861.48C439.983 861.48 441.485 860.867 442.651 859.64C443.847 858.383 444.445 856.711 444.445 854.626C444.445 852.541 443.847 850.885 442.651 849.658C441.485 848.401 439.983 847.772 438.143 847.772C436.303 847.772 434.785 848.401 433.589 849.658C432.393 850.885 431.795 852.541 431.795 854.626C431.795 856.711 432.393 858.383 433.589 859.64C434.785 860.867 436.303 861.48 438.143 861.48ZM471.137 841.884C473.437 841.884 475.523 842.421 477.393 843.494C479.295 844.537 480.782 846.024 481.855 847.956C482.929 849.857 483.465 852.081 483.465 854.626C483.465 857.171 482.929 859.41 481.855 861.342C480.782 863.243 479.295 864.731 477.393 865.804C475.523 866.847 473.437 867.368 471.137 867.368C467.979 867.368 465.495 866.371 463.685 864.378V875.924H456.509V842.252H463.363V845.104C465.142 842.957 467.733 841.884 471.137 841.884ZM469.895 861.48C471.735 861.48 473.238 860.867 474.403 859.64C475.599 858.383 476.197 856.711 476.197 854.626C476.197 852.541 475.599 850.885 474.403 849.658C473.238 848.401 471.735 847.772 469.895 847.772C468.055 847.772 466.537 848.401 465.341 849.658C464.176 850.885 463.593 852.541 463.593 854.626C463.593 856.711 464.176 858.383 465.341 859.64C466.537 860.867 468.055 861.48 469.895 861.48ZM512.382 867.552C509.837 867.552 507.368 867.215 504.976 866.54C502.615 865.835 500.714 864.93 499.272 863.826L501.802 858.214C503.182 859.226 504.823 860.039 506.724 860.652C508.626 861.265 510.527 861.572 512.428 861.572C514.544 861.572 516.108 861.265 517.12 860.652C518.132 860.008 518.638 859.165 518.638 858.122C518.638 857.355 518.332 856.727 517.718 856.236C517.136 855.715 516.369 855.301 515.418 854.994C514.498 854.687 513.241 854.35 511.646 853.982C509.193 853.399 507.184 852.817 505.62 852.234C504.056 851.651 502.707 850.716 501.572 849.428C500.468 848.14 499.916 846.423 499.916 844.276C499.916 842.405 500.422 840.719 501.434 839.216C502.446 837.683 503.964 836.471 505.988 835.582C508.043 834.693 510.542 834.248 513.486 834.248C515.541 834.248 517.55 834.493 519.512 834.984C521.475 835.475 523.192 836.18 524.664 837.1L522.364 842.758C519.39 841.071 516.415 840.228 513.44 840.228C511.355 840.228 509.806 840.565 508.794 841.24C507.813 841.915 507.322 842.804 507.322 843.908C507.322 845.012 507.89 845.84 509.024 846.392C510.19 846.913 511.953 847.435 514.314 847.956C516.768 848.539 518.776 849.121 520.34 849.704C521.904 850.287 523.238 851.207 524.342 852.464C525.477 853.721 526.044 855.423 526.044 857.57C526.044 859.41 525.523 861.097 524.48 862.63C523.468 864.133 521.935 865.329 519.88 866.218C517.826 867.107 515.326 867.552 512.382 867.552ZM531.136 834.8H545.764C549.26 834.8 552.342 835.475 555.01 836.824C557.709 838.143 559.794 840.013 561.266 842.436C562.769 844.859 563.52 847.68 563.52 850.9C563.52 854.12 562.769 856.941 561.266 859.364C559.794 861.787 557.709 863.673 555.01 865.022C552.342 866.341 549.26 867 545.764 867H531.136V834.8ZM545.396 860.882C548.616 860.882 551.177 859.993 553.078 858.214C555.01 856.405 555.976 853.967 555.976 850.9C555.976 847.833 555.01 845.411 553.078 843.632C551.177 841.823 548.616 840.918 545.396 840.918H538.588V860.882H545.396ZM580.87 854.35L576.546 858.858V867H569.14V834.8H576.546V849.842L590.806 834.8H599.086L585.746 849.152L599.868 867H591.174L580.87 854.35Z" fill="#1E1E1E"/>
<path d="M309.462 1028.26C311.302 1028.84 312.743 1029.82 313.786 1031.2C314.829 1032.55 315.35 1034.22 315.35 1036.21C315.35 1039.04 314.246 1041.21 312.038 1042.75C309.861 1044.25 306.671 1045 302.47 1045H285.818V1012.8H301.55C305.475 1012.8 308.481 1013.55 310.566 1015.05C312.682 1016.56 313.74 1018.6 313.74 1021.17C313.74 1022.74 313.357 1024.13 312.59 1025.36C311.854 1026.58 310.811 1027.55 309.462 1028.26ZM293.224 1018.41V1026H300.63C302.47 1026 303.865 1025.68 304.816 1025.04C305.767 1024.39 306.242 1023.44 306.242 1022.18C306.242 1020.93 305.767 1019.99 304.816 1019.38C303.865 1018.73 302.47 1018.41 300.63 1018.41H293.224ZM301.918 1039.39C303.881 1039.39 305.353 1039.07 306.334 1038.42C307.346 1037.78 307.852 1036.78 307.852 1035.43C307.852 1032.76 305.874 1031.43 301.918 1031.43H293.224V1039.39H301.918ZM327.34 1023.52C328.198 1022.32 329.348 1021.42 330.79 1020.8C332.262 1020.19 333.948 1019.88 335.85 1019.88V1026.51C335.052 1026.45 334.516 1026.42 334.24 1026.42C332.185 1026.42 330.575 1027 329.41 1028.16C328.244 1029.3 327.662 1031.02 327.662 1033.32V1045H320.486V1020.25H327.34V1023.52ZM351.668 1045.37C349.061 1045.37 346.715 1044.83 344.63 1043.76C342.575 1042.65 340.965 1041.14 339.8 1039.2C338.635 1037.27 338.052 1035.08 338.052 1032.63C338.052 1030.17 338.635 1027.98 339.8 1026.05C340.965 1024.12 342.575 1022.61 344.63 1021.54C346.715 1020.44 349.061 1019.88 351.668 1019.88C354.275 1019.88 356.605 1020.44 358.66 1021.54C360.715 1022.61 362.325 1024.12 363.49 1026.05C364.655 1027.98 365.238 1030.17 365.238 1032.63C365.238 1035.08 364.655 1037.27 363.49 1039.2C362.325 1041.14 360.715 1042.65 358.66 1043.76C356.605 1044.83 354.275 1045.37 351.668 1045.37ZM351.668 1039.48C353.508 1039.48 355.011 1038.87 356.176 1037.64C357.372 1036.38 357.97 1034.71 357.97 1032.63C357.97 1030.54 357.372 1028.88 356.176 1027.66C355.011 1026.4 353.508 1025.77 351.668 1025.77C349.828 1025.77 348.31 1026.4 347.114 1027.66C345.918 1028.88 345.32 1030.54 345.32 1032.63C345.32 1034.71 345.918 1036.38 347.114 1037.64C348.31 1038.87 349.828 1039.48 351.668 1039.48ZM409.105 1020.25L400.135 1045H393.235L387.669 1029.64L381.919 1045H375.019L366.095 1020.25H372.857L378.699 1037L384.771 1020.25H390.843L396.731 1037L402.757 1020.25H409.105ZM420.408 1045.37C418.353 1045.37 416.344 1045.12 414.382 1044.63C412.419 1044.11 410.855 1043.47 409.69 1042.7L412.082 1037.55C413.186 1038.25 414.52 1038.84 416.084 1039.3C417.648 1039.73 419.181 1039.94 420.684 1039.94C423.72 1039.94 425.238 1039.19 425.238 1037.69C425.238 1036.98 424.824 1036.47 423.996 1036.17C423.168 1035.86 421.895 1035.6 420.178 1035.39C418.154 1035.08 416.482 1034.73 415.164 1034.33C413.845 1033.93 412.695 1033.22 411.714 1032.21C410.763 1031.2 410.288 1029.76 410.288 1027.89C410.288 1026.32 410.732 1024.94 411.622 1023.75C412.542 1022.52 413.86 1021.57 415.578 1020.9C417.326 1020.22 419.38 1019.88 421.742 1019.88C423.49 1019.88 425.222 1020.08 426.94 1020.48C428.688 1020.85 430.129 1021.37 431.264 1022.05L428.872 1027.15C426.694 1025.93 424.318 1025.31 421.742 1025.31C420.208 1025.31 419.058 1025.53 418.292 1025.96C417.525 1026.39 417.142 1026.94 417.142 1027.61C417.142 1028.38 417.556 1028.92 418.384 1029.22C419.212 1029.53 420.53 1029.82 422.34 1030.1C424.364 1030.43 426.02 1030.8 427.308 1031.2C428.596 1031.57 429.715 1032.26 430.666 1033.27C431.616 1034.28 432.092 1035.69 432.092 1037.5C432.092 1039.04 431.632 1040.4 430.712 1041.6C429.792 1042.79 428.442 1043.73 426.664 1044.4C424.916 1045.05 422.83 1045.37 420.408 1045.37ZM460.761 1032.72C460.761 1032.81 460.715 1033.45 460.623 1034.65H441.901C442.238 1036.18 443.036 1037.39 444.293 1038.28C445.55 1039.17 447.114 1039.62 448.985 1039.62C450.273 1039.62 451.408 1039.43 452.389 1039.07C453.401 1038.67 454.336 1038.05 455.195 1037.23L459.013 1041.37C456.682 1044.03 453.278 1045.37 448.801 1045.37C446.01 1045.37 443.542 1044.83 441.395 1043.76C439.248 1042.65 437.592 1041.14 436.427 1039.2C435.262 1037.27 434.679 1035.08 434.679 1032.63C434.679 1030.2 435.246 1028.03 436.381 1026.09C437.546 1024.13 439.126 1022.61 441.119 1021.54C443.143 1020.44 445.397 1019.88 447.881 1019.88C450.304 1019.88 452.496 1020.41 454.459 1021.45C456.422 1022.49 457.955 1023.99 459.059 1025.96C460.194 1027.89 460.761 1030.14 460.761 1032.72ZM447.927 1025.31C446.302 1025.31 444.937 1025.77 443.833 1026.69C442.729 1027.61 442.054 1028.87 441.809 1030.46H453.999C453.754 1028.9 453.079 1027.66 451.975 1026.74C450.871 1025.79 449.522 1025.31 447.927 1025.31ZM472.393 1023.52C473.251 1022.32 474.401 1021.42 475.843 1020.8C477.315 1020.19 479.001 1019.88 480.903 1019.88V1026.51C480.105 1026.45 479.569 1026.42 479.293 1026.42C477.238 1026.42 475.628 1027 474.463 1028.16C473.297 1029.3 472.715 1031.02 472.715 1033.32V1045H465.539V1020.25H472.393V1023.52ZM514.292 1045.55C511.011 1045.55 508.036 1044.85 505.368 1043.44C502.731 1041.99 500.646 1040.02 499.112 1037.5C497.61 1034.96 496.858 1032.09 496.858 1028.9C496.858 1025.71 497.61 1022.86 499.112 1020.34C500.646 1017.8 502.731 1015.82 505.368 1014.41C508.036 1012.97 511.026 1012.25 514.338 1012.25C517.129 1012.25 519.644 1012.74 521.882 1013.72C524.152 1014.7 526.053 1016.11 527.586 1017.95L522.802 1022.37C520.625 1019.85 517.926 1018.6 514.706 1018.6C512.713 1018.6 510.934 1019.04 509.37 1019.93C507.806 1020.79 506.58 1022 505.69 1023.56C504.832 1025.13 504.402 1026.91 504.402 1028.9C504.402 1030.89 504.832 1032.67 505.69 1034.24C506.58 1035.8 507.806 1037.03 509.37 1037.92C510.934 1038.77 512.713 1039.2 514.706 1039.2C517.926 1039.2 520.625 1037.93 522.802 1035.39L527.586 1039.8C526.053 1041.67 524.152 1043.1 521.882 1044.08C519.613 1045.06 517.083 1045.55 514.292 1045.55ZM543.035 1045.37C540.429 1045.37 538.083 1044.83 535.997 1043.76C533.943 1042.65 532.333 1041.14 531.167 1039.2C530.002 1037.27 529.419 1035.08 529.419 1032.63C529.419 1030.17 530.002 1027.98 531.167 1026.05C532.333 1024.12 533.943 1022.61 535.997 1021.54C538.083 1020.44 540.429 1019.88 543.035 1019.88C545.642 1019.88 547.973 1020.44 550.027 1021.54C552.082 1022.61 553.692 1024.12 554.857 1026.05C556.023 1027.98 556.605 1030.17 556.605 1032.63C556.605 1035.08 556.023 1037.27 554.857 1039.2C553.692 1041.14 552.082 1042.65 550.027 1043.76C547.973 1044.83 545.642 1045.37 543.035 1045.37ZM543.035 1039.48C544.875 1039.48 546.378 1038.87 547.543 1037.64C548.739 1036.38 549.337 1034.71 549.337 1032.63C549.337 1030.54 548.739 1028.88 547.543 1027.66C546.378 1026.4 544.875 1025.77 543.035 1025.77C541.195 1025.77 539.677 1026.4 538.481 1027.66C537.285 1028.88 536.687 1030.54 536.687 1032.63C536.687 1034.71 537.285 1036.38 538.481 1037.64C539.677 1038.87 541.195 1039.48 543.035 1039.48ZM568.256 1023.52C569.115 1022.32 570.265 1021.42 571.706 1020.8C573.178 1020.19 574.865 1019.88 576.766 1019.88V1026.51C575.969 1026.45 575.432 1026.42 575.156 1026.42C573.101 1026.42 571.491 1027 570.326 1028.16C569.161 1029.3 568.578 1031.02 568.578 1033.32V1045H561.402V1020.25H568.256V1023.52ZM605.05 1032.72C605.05 1032.81 605.004 1033.45 604.912 1034.65H586.19C586.527 1036.18 587.325 1037.39 588.582 1038.28C589.839 1039.17 591.403 1039.62 593.274 1039.62C594.562 1039.62 595.697 1039.43 596.678 1039.07C597.69 1038.67 598.625 1038.05 599.484 1037.23L603.302 1041.37C600.971 1044.03 597.567 1045.37 593.09 1045.37C590.299 1045.37 587.831 1044.83 585.684 1043.76C583.537 1042.65 581.881 1041.14 580.716 1039.2C579.551 1037.27 578.968 1035.08 578.968 1032.63C578.968 1030.2 579.535 1028.03 580.67 1026.09C581.835 1024.13 583.415 1022.61 585.408 1021.54C587.432 1020.44 589.686 1019.88 592.17 1019.88C594.593 1019.88 596.785 1020.41 598.748 1021.45C600.711 1022.49 602.244 1023.99 603.348 1025.96C604.483 1027.89 605.05 1030.14 605.05 1032.72ZM592.216 1025.31C590.591 1025.31 589.226 1025.77 588.122 1026.69C587.018 1027.61 586.343 1028.87 586.098 1030.46H598.288C598.043 1028.9 597.368 1027.66 596.264 1026.74C595.16 1025.79 593.811 1025.31 592.216 1025.31Z" fill="#1E1E1E"/>
<path d="M565.94 18.884C568.24 18.884 570.325 19.4207 572.196 20.494C574.097 21.5367 575.585 23.024 576.658 24.956C577.731 26.8573 578.268 29.0807 578.268 31.626C578.268 34.1713 577.731 36.41 576.658 38.342C575.585 40.2433 574.097 41.7307 572.196 42.804C570.325 43.8467 568.24 44.368 565.94 44.368C562.781 44.368 560.297 43.3713 558.488 41.378V52.924H551.312V19.252H558.166V22.104C559.945 19.9573 562.536 18.884 565.94 18.884ZM564.698 38.48C566.538 38.48 568.041 37.8667 569.206 36.64C570.402 35.3827 571 33.7113 571 31.626C571 29.5407 570.402 27.8847 569.206 26.658C568.041 25.4007 566.538 24.772 564.698 24.772C562.858 24.772 561.34 25.4007 560.144 26.658C558.979 27.8847 558.396 29.5407 558.396 31.626C558.396 33.7113 558.979 35.3827 560.144 36.64C561.34 37.8667 562.858 38.48 564.698 38.48ZM589.926 22.518C590.784 21.322 591.934 20.4173 593.376 19.804C594.848 19.1907 596.534 18.884 598.436 18.884V25.508C597.638 25.4467 597.102 25.416 596.826 25.416C594.771 25.416 593.161 25.9987 591.996 27.164C590.83 28.2987 590.248 30.016 590.248 32.316V44H583.072V19.252H589.926V22.518ZM626.72 31.718C626.72 31.81 626.674 32.454 626.582 33.65H607.86C608.197 35.1833 608.995 36.3947 610.252 37.284C611.509 38.1733 613.073 38.618 614.944 38.618C616.232 38.618 617.367 38.434 618.348 38.066C619.36 37.6673 620.295 37.054 621.154 36.226L624.972 40.366C622.641 43.034 619.237 44.368 614.76 44.368C611.969 44.368 609.501 43.8313 607.354 42.758C605.207 41.654 603.551 40.136 602.386 38.204C601.221 36.272 600.638 34.0793 600.638 31.626C600.638 29.2033 601.205 27.026 602.34 25.094C603.505 23.1313 605.085 21.6133 607.078 20.54C609.102 19.436 611.356 18.884 613.84 18.884C616.263 18.884 618.455 19.4053 620.418 20.448C622.381 21.4907 623.914 22.9933 625.018 24.956C626.153 26.888 626.72 29.142 626.72 31.718ZM613.886 24.312C612.261 24.312 610.896 24.772 609.792 25.692C608.688 26.612 608.013 27.8693 607.768 29.464H619.958C619.713 27.9 619.038 26.658 617.934 25.738C616.83 24.7873 615.481 24.312 613.886 24.312ZM655.612 19.252L645.17 44H637.764L627.368 19.252H634.774L641.628 36.088L648.712 19.252H655.612ZM658.541 19.252H665.717V44H658.541V19.252ZM662.129 15.802C660.81 15.802 659.737 15.4187 658.909 14.652C658.081 13.8853 657.667 12.9347 657.667 11.8C657.667 10.6653 658.081 9.71466 658.909 8.948C659.737 8.18133 660.81 7.798 662.129 7.798C663.447 7.798 664.521 8.166 665.349 8.902C666.177 9.638 666.591 10.558 666.591 11.662C666.591 12.858 666.177 13.8547 665.349 14.652C664.521 15.4187 663.447 15.802 662.129 15.802ZM696.618 31.718C696.618 31.81 696.572 32.454 696.48 33.65H677.758C678.096 35.1833 678.893 36.3947 680.15 37.284C681.408 38.1733 682.972 38.618 684.842 38.618C686.13 38.618 687.265 38.434 688.246 38.066C689.258 37.6673 690.194 37.054 691.052 36.226L694.87 40.366C692.54 43.034 689.136 44.368 684.658 44.368C681.868 44.368 679.399 43.8313 677.252 42.758C675.106 41.654 673.45 40.136 672.284 38.204C671.119 36.272 670.536 34.0793 670.536 31.626C670.536 29.2033 671.104 27.026 672.238 25.094C673.404 23.1313 674.983 21.6133 676.976 20.54C679 19.436 681.254 18.884 683.738 18.884C686.161 18.884 688.354 19.4053 690.316 20.448C692.279 21.4907 693.812 22.9933 694.916 24.956C696.051 26.888 696.618 29.142 696.618 31.718ZM683.784 24.312C682.159 24.312 680.794 24.772 679.69 25.692C678.586 26.612 677.912 27.8693 677.666 29.464H689.856C689.611 27.9 688.936 26.658 687.832 25.738C686.728 24.7873 685.379 24.312 683.784 24.312ZM740.691 19.252L731.721 44H724.821L719.255 28.636L713.505 44H706.605L697.681 19.252H704.443L710.285 35.996L716.357 19.252H722.429L728.317 35.996L734.343 19.252H740.691Z" fill="white"/>
<path d="M1028.29 18.884C1032.13 18.884 1035.07 19.804 1037.13 21.644C1039.18 23.4533 1040.21 26.198 1040.21 29.878V44H1033.49V40.918C1032.14 43.218 1029.63 44.368 1025.95 44.368C1024.05 44.368 1022.39 44.046 1020.98 43.402C1019.6 42.758 1018.54 41.8687 1017.81 40.734C1017.07 39.5993 1016.7 38.3113 1016.7 36.87C1016.7 34.57 1017.56 32.7607 1019.28 31.442C1021.03 30.1233 1023.71 29.464 1027.33 29.464H1033.03C1033.03 27.9 1032.56 26.704 1031.61 25.876C1030.66 25.0173 1029.23 24.588 1027.33 24.588C1026.01 24.588 1024.71 24.8027 1023.42 25.232C1022.16 25.6307 1021.09 26.1827 1020.2 26.888L1017.62 21.874C1018.97 20.9233 1020.58 20.1873 1022.45 19.666C1024.35 19.1447 1026.3 18.884 1028.29 18.884ZM1027.74 39.538C1028.97 39.538 1030.06 39.262 1031.01 38.71C1031.96 38.1273 1032.63 37.284 1033.03 36.18V33.65H1028.11C1025.17 33.65 1023.69 34.616 1023.69 36.548C1023.69 37.468 1024.05 38.204 1024.75 38.756C1025.49 39.2773 1026.48 39.538 1027.74 39.538ZM1046.7 9.868H1053.88V44H1046.7V9.868ZM1075.17 18.884C1077.47 18.884 1079.55 19.4207 1081.42 20.494C1083.32 21.5367 1084.81 23.024 1085.88 24.956C1086.96 26.8573 1087.49 29.0807 1087.49 31.626C1087.49 34.1713 1086.96 36.41 1085.88 38.342C1084.81 40.2433 1083.32 41.7307 1081.42 42.804C1079.55 43.8467 1077.47 44.368 1075.17 44.368C1072.01 44.368 1069.52 43.3713 1067.71 41.378V52.924H1060.54V19.252H1067.39V22.104C1069.17 19.9573 1071.76 18.884 1075.17 18.884ZM1073.92 38.48C1075.76 38.48 1077.27 37.8667 1078.43 36.64C1079.63 35.3827 1080.23 33.7113 1080.23 31.626C1080.23 29.5407 1079.63 27.8847 1078.43 26.658C1077.27 25.4007 1075.76 24.772 1073.92 24.772C1072.08 24.772 1070.57 25.4007 1069.37 26.658C1068.21 27.8847 1067.62 29.5407 1067.62 31.626C1067.62 33.7113 1068.21 35.3827 1069.37 36.64C1070.57 37.8667 1072.08 38.48 1073.92 38.48ZM1107.34 18.884C1110.41 18.884 1112.88 19.804 1114.75 21.644C1116.65 23.484 1117.6 26.2133 1117.6 29.832V44H1110.42V30.936C1110.42 28.9733 1109.99 27.5167 1109.13 26.566C1108.28 25.5847 1107.03 25.094 1105.41 25.094C1103.6 25.094 1102.16 25.6613 1101.08 26.796C1100.01 27.9 1099.47 29.556 1099.47 31.764V44H1092.3V9.868H1099.47V21.828C1100.42 20.8773 1101.57 20.1567 1102.92 19.666C1104.27 19.1447 1105.75 18.884 1107.34 18.884ZM1134.09 18.884C1137.92 18.884 1140.86 19.804 1142.92 21.644C1144.97 23.4533 1146 26.198 1146 29.878V44H1139.28V40.918C1137.93 43.218 1135.42 44.368 1131.74 44.368C1129.84 44.368 1128.18 44.046 1126.77 43.402C1125.39 42.758 1124.33 41.8687 1123.6 40.734C1122.86 39.5993 1122.49 38.3113 1122.49 36.87C1122.49 34.57 1123.35 32.7607 1125.07 31.442C1126.82 30.1233 1129.5 29.464 1133.12 29.464H1138.82C1138.82 27.9 1138.35 26.704 1137.4 25.876C1136.45 25.0173 1135.02 24.588 1133.12 24.588C1131.8 24.588 1130.5 24.8027 1129.21 25.232C1127.95 25.6307 1126.88 26.1827 1125.99 26.888L1123.41 21.874C1124.76 20.9233 1126.37 20.1873 1128.24 19.666C1130.14 19.1447 1132.09 18.884 1134.09 18.884ZM1133.53 39.538C1134.76 39.538 1135.85 39.262 1136.8 38.71C1137.75 38.1273 1138.42 37.284 1138.82 36.18V33.65H1133.9C1130.96 33.65 1129.49 34.616 1129.49 36.548C1129.49 37.468 1129.84 38.204 1130.54 38.756C1131.28 39.2773 1132.28 39.538 1133.53 39.538Z" fill="white"/>
<path d="M1482.94 18.884C1485.24 18.884 1487.33 19.4207 1489.2 20.494C1491.1 21.5367 1492.58 23.024 1493.66 24.956C1494.73 26.8573 1495.27 29.0807 1495.27 31.626C1495.27 34.1713 1494.73 36.41 1493.66 38.342C1492.58 40.2433 1491.1 41.7307 1489.2 42.804C1487.33 43.8467 1485.24 44.368 1482.94 44.368C1479.54 44.368 1476.94 43.2947 1475.17 41.148V44H1468.31V9.868H1475.49V21.874C1477.3 19.8807 1479.78 18.884 1482.94 18.884ZM1481.7 38.48C1483.54 38.48 1485.04 37.8667 1486.21 36.64C1487.4 35.3827 1488 33.7113 1488 31.626C1488 29.5407 1487.4 27.8847 1486.21 26.658C1485.04 25.4007 1483.54 24.772 1481.7 24.772C1479.86 24.772 1478.34 25.4007 1477.14 26.658C1475.98 27.8847 1475.4 29.5407 1475.4 31.626C1475.4 33.7113 1475.98 35.3827 1477.14 36.64C1478.34 37.8667 1479.86 38.48 1481.7 38.48ZM1524.31 31.718C1524.31 31.81 1524.27 32.454 1524.18 33.65H1505.45C1505.79 35.1833 1506.59 36.3947 1507.85 37.284C1509.1 38.1733 1510.67 38.618 1512.54 38.618C1513.83 38.618 1514.96 38.434 1515.94 38.066C1516.95 37.6673 1517.89 37.054 1518.75 36.226L1522.57 40.366C1520.24 43.034 1516.83 44.368 1512.35 44.368C1509.56 44.368 1507.09 43.8313 1504.95 42.758C1502.8 41.654 1501.15 40.136 1499.98 38.204C1498.81 36.272 1498.23 34.0793 1498.23 31.626C1498.23 29.2033 1498.8 27.026 1499.93 25.094C1501.1 23.1313 1502.68 21.6133 1504.67 20.54C1506.7 19.436 1508.95 18.884 1511.43 18.884C1513.86 18.884 1516.05 19.4053 1518.01 20.448C1519.97 21.4907 1521.51 22.9933 1522.61 24.956C1523.75 26.888 1524.31 29.142 1524.31 31.718ZM1511.48 24.312C1509.85 24.312 1508.49 24.772 1507.39 25.692C1506.28 26.612 1505.61 27.8693 1505.36 29.464H1517.55C1517.31 27.9 1516.63 26.658 1515.53 25.738C1514.42 24.7873 1513.07 24.312 1511.48 24.312ZM1545.05 42.804C1544.35 43.3253 1543.47 43.724 1542.43 44C1541.42 44.2453 1540.35 44.368 1539.21 44.368C1536.27 44.368 1533.98 43.6167 1532.36 42.114C1530.76 40.6113 1529.97 38.4033 1529.97 35.49V25.324H1526.15V19.804H1529.97V13.778H1537.14V19.804H1543.31V25.324H1537.14V35.398C1537.14 36.4407 1537.4 37.2533 1537.92 37.836C1538.48 38.388 1539.24 38.664 1540.22 38.664C1541.36 38.664 1542.32 38.3573 1543.12 37.744L1545.05 42.804ZM1559.06 18.884C1562.9 18.884 1565.84 19.804 1567.9 21.644C1569.95 23.4533 1570.98 26.198 1570.98 29.878V44H1564.26V40.918C1562.91 43.218 1560.4 44.368 1556.72 44.368C1554.82 44.368 1553.16 44.046 1551.75 43.402C1550.37 42.758 1549.31 41.8687 1548.58 40.734C1547.84 39.5993 1547.47 38.3113 1547.47 36.87C1547.47 34.57 1548.33 32.7607 1550.05 31.442C1551.8 30.1233 1554.48 29.464 1558.1 29.464H1563.8C1563.8 27.9 1563.33 26.704 1562.38 25.876C1561.42 25.0173 1560 24.588 1558.1 24.588C1556.78 24.588 1555.48 24.8027 1554.19 25.232C1552.93 25.6307 1551.86 26.1827 1550.97 26.888L1548.39 21.874C1549.74 20.9233 1551.35 20.1873 1553.22 19.666C1555.12 19.1447 1557.07 18.884 1559.06 18.884ZM1558.51 39.538C1559.74 39.538 1560.83 39.262 1561.78 38.71C1562.73 38.1273 1563.4 37.284 1563.8 36.18V33.65H1558.88C1555.94 33.65 1554.46 34.616 1554.46 36.548C1554.46 37.468 1554.82 38.204 1555.52 38.756C1556.26 39.2773 1557.25 39.538 1558.51 39.538Z" fill="white"/>
<path d="M2096.88 19.252L2086.43 44H2079.03L2068.63 19.252H2076.04L2082.89 36.088L2089.98 19.252H2096.88ZM2111.6 11.8V44H2104.15V17.78H2097.71V11.8H2111.6Z" fill="white"/>
<path d="M65.704 190.664H43V99.676H61.06L104.92 146.116C109.621 151.047 113.635 154.372 116.96 156.092C120.4 157.812 123.783 158.672 127.108 158.672C131.924 158.672 135.593 157.009 138.116 153.684C140.753 150.473 142.072 145.715 142.072 139.408C142.072 134.133 141.04 129.375 138.976 125.132C137.027 120.889 134.045 117.335 130.032 114.468L143.104 94.172C150.099 98.8733 155.545 105.352 159.444 113.608C163.457 121.864 165.464 131.324 165.464 141.988C165.464 150.932 163.973 158.729 160.992 165.38C158.125 172.145 153.997 177.363 148.608 181.032C143.333 184.816 137.084 186.708 129.86 186.708C123.324 186.708 117.189 185.332 111.456 182.58C105.723 179.828 99.1867 174.496 91.848 166.584L65.704 138.892V190.664ZM79.292 247.569L66.564 234.669H43V207.837H170.624V234.669H98.384L135.536 273.885V305.877L96.32 267.349L43 309.317V276.809L79.292 247.569ZM65.704 409.695H43L43 318.707H61.06L104.92 365.147C109.621 370.078 113.635 373.403 116.96 375.123C120.4 376.843 123.783 377.703 127.108 377.703C131.924 377.703 135.593 376.041 138.116 372.715C140.753 369.505 142.072 364.746 142.072 358.439C142.072 353.165 141.04 348.406 138.976 344.163C137.027 339.921 134.045 336.366 130.032 333.499L143.104 313.203C150.099 317.905 155.545 324.383 159.444 332.639C163.457 340.895 165.464 350.355 165.464 361.019C165.464 369.963 163.973 377.761 160.992 384.411C158.125 391.177 153.997 396.394 148.608 400.063C143.333 403.847 137.084 405.739 129.86 405.739C123.324 405.739 117.189 404.363 111.456 401.611C105.723 398.859 99.1867 393.527 91.848 385.615L65.704 357.923V409.695ZM114.38 477.436C112.66 487.986 108.704 496.07 102.512 501.688C96.4347 507.307 88.8667 510.116 79.808 510.116C72.8133 510.116 66.3347 508.282 60.372 504.612C54.524 500.943 49.8227 495.324 46.268 487.756C42.7133 480.303 40.936 471.13 40.936 460.236C40.936 451.751 42.0253 443.38 44.204 435.124C46.4973 426.983 49.708 420.046 53.836 414.312L75.164 425.148C71.724 429.735 69.0293 435.01 67.08 440.972C65.2453 447.05 64.328 453.242 64.328 459.548C64.328 466.543 65.6467 472.047 68.284 476.06C71.036 480.074 74.8773 482.08 79.808 482.08C89.6693 482.08 94.6 474.57 94.6 459.548V446.82H113.004L141.04 471.588L141.04 420.332H163.4V504.612H145.34L114.38 477.436ZM41.624 538.805C41.624 534.104 43.2293 530.148 46.44 526.937C49.6507 523.727 53.664 522.121 58.48 522.121C63.4107 522.121 67.3667 523.727 70.348 526.937C73.444 530.148 74.992 534.104 74.992 538.805C74.992 543.507 73.444 547.463 70.348 550.673C67.3667 553.884 63.4107 555.489 58.48 555.489C53.664 555.489 49.6507 553.884 46.44 550.673C43.2293 547.463 41.624 543.507 41.624 538.805ZM30.1 702.41C25.284 698.511 21.6147 693.752 19.092 688.134C16.5693 682.63 15.308 676.552 15.308 669.902C15.308 660.958 17.2573 652.874 21.156 645.65C24.94 638.426 31.7053 630.17 41.452 620.882C42.828 609.988 46.3253 600.242 51.944 591.642C57.5627 583.156 64.7867 576.506 73.616 571.69C82.56 566.988 92.4213 564.638 103.2 564.638C115.011 564.638 125.617 567.447 135.02 573.066C144.537 578.799 151.991 586.654 157.38 596.63C162.769 606.72 165.464 618.015 165.464 630.514C165.464 643.012 162.769 654.25 157.38 664.226C151.991 674.202 144.537 682.056 135.02 687.79C125.617 693.523 115.011 696.39 103.2 696.39C89.2107 696.39 76.9413 692.434 66.392 684.522C55.8427 676.724 48.504 666.347 44.376 653.39C41.3947 656.256 39.2733 659.008 38.012 661.646C36.636 664.398 35.948 667.322 35.948 670.418C35.948 677.871 38.9293 684.407 44.892 690.026L30.1 702.41ZM103.2 592.846C95.7467 592.846 89.096 594.451 83.248 597.662C77.4 600.987 72.8133 605.516 69.488 611.25C66.2773 616.983 64.672 623.404 64.672 630.514C64.672 637.623 66.2773 644.044 69.488 649.778C72.8133 655.511 77.4 659.983 83.248 663.194C89.096 666.519 95.7467 668.182 103.2 668.182C110.653 668.182 117.304 666.519 123.152 663.194C129 659.983 133.529 655.511 136.74 649.778C140.065 644.044 141.728 637.623 141.728 630.514C141.728 623.404 140.065 616.983 136.74 611.25C133.529 605.516 129 600.987 123.152 597.662C117.304 594.451 110.653 592.846 103.2 592.846ZM68.284 820.015V800.407H43L43 773.231H68.284V708.387H87.032L163.4 765.147V794.387L90.988 741.755V774.091H113.52V800.407H90.988V820.015H68.284Z" fill="white"/>
<path d="M2220.7 449.664H2198V358.676H2216.06L2259.92 405.116C2264.62 410.047 2268.63 413.372 2271.96 415.092C2275.4 416.812 2278.78 417.672 2282.11 417.672C2286.92 417.672 2290.59 416.009 2293.12 412.684C2295.75 409.473 2297.07 404.715 2297.07 398.408C2297.07 393.133 2296.04 388.375 2293.98 384.132C2292.03 379.889 2289.05 376.335 2285.03 373.468L2298.1 353.172C2305.1 357.873 2310.55 364.352 2314.44 372.608C2318.46 380.864 2320.46 390.324 2320.46 400.988C2320.46 409.932 2318.97 417.729 2315.99 424.38C2313.13 431.145 2309 436.363 2303.61 440.032C2298.33 443.816 2292.08 445.708 2284.86 445.708C2278.32 445.708 2272.19 444.332 2266.46 441.58C2260.72 438.828 2254.19 433.496 2246.85 425.584L2220.7 397.892V449.664ZM2234.29 506.569L2221.56 493.669H2198V466.837H2325.62V493.669H2253.38L2290.54 532.885V564.877L2251.32 526.349L2198 568.317V535.809L2234.29 506.569ZM2220.7 668.695H2198V577.707H2216.06L2259.92 624.147C2264.62 629.078 2268.63 632.403 2271.96 634.123C2275.4 635.843 2278.78 636.703 2282.11 636.703C2286.92 636.703 2290.59 635.041 2293.12 631.715C2295.75 628.505 2297.07 623.746 2297.07 617.439C2297.07 612.165 2296.04 607.406 2293.98 603.163C2292.03 598.921 2289.05 595.366 2285.03 592.499L2298.1 572.203C2305.1 576.905 2310.55 583.383 2314.44 591.639C2318.46 599.895 2320.46 609.355 2320.46 620.019C2320.46 628.963 2318.97 636.761 2315.99 643.411C2313.13 650.177 2309 655.394 2303.61 659.063C2298.33 662.847 2292.08 664.739 2284.86 664.739C2278.32 664.739 2272.19 663.363 2266.46 660.611C2260.72 657.859 2254.19 652.527 2246.85 644.615L2220.7 616.923V668.695ZM2223.28 788.765V769.157H2198V741.981H2223.28V677.137H2242.03L2318.4 733.897V763.137L2245.99 710.505V742.841H2268.52V769.157H2245.99V788.765H2223.28ZM2196.62 816.282C2196.62 811.581 2198.23 807.625 2201.44 804.414C2204.65 801.203 2208.66 799.598 2213.48 799.598C2218.41 799.598 2222.37 801.203 2225.35 804.414C2228.44 807.625 2229.99 811.581 2229.99 816.282C2229.99 820.983 2228.44 824.939 2225.35 828.15C2222.37 831.361 2218.41 832.966 2213.48 832.966C2208.66 832.966 2204.65 831.361 2201.44 828.15C2198.23 824.939 2196.62 820.983 2196.62 816.282ZM2185.1 979.886C2180.28 975.988 2176.61 971.229 2174.09 965.61C2171.57 960.106 2170.31 954.029 2170.31 947.378C2170.31 938.434 2172.26 930.35 2176.16 923.126C2179.94 915.902 2186.71 907.646 2196.45 898.358C2197.83 887.465 2201.33 877.718 2206.94 869.118C2212.56 860.633 2219.79 853.982 2228.62 849.166C2237.56 844.465 2247.42 842.114 2258.2 842.114C2270.01 842.114 2280.62 844.924 2290.02 850.542C2299.54 856.276 2306.99 864.13 2312.38 874.106C2317.77 884.197 2320.46 895.492 2320.46 907.99C2320.46 920.489 2317.77 931.726 2312.38 941.702C2306.99 951.678 2299.54 959.533 2290.02 965.266C2280.62 971 2270.01 973.866 2258.2 973.866C2244.21 973.866 2231.94 969.91 2221.39 961.998C2210.84 954.201 2203.5 943.824 2199.38 930.866C2196.39 933.733 2194.27 936.485 2193.01 939.122C2191.64 941.874 2190.95 944.798 2190.95 947.894C2190.95 955.348 2193.93 961.884 2199.89 967.502L2185.1 979.886ZM2258.2 870.322C2250.75 870.322 2244.1 871.928 2238.25 875.138C2232.4 878.464 2227.81 882.993 2224.49 888.726C2221.28 894.46 2219.67 900.881 2219.67 907.99C2219.67 915.1 2221.28 921.521 2224.49 927.254C2227.81 932.988 2232.4 937.46 2238.25 940.67C2244.1 943.996 2250.75 945.658 2258.2 945.658C2265.65 945.658 2272.3 943.996 2278.15 940.67C2284 937.46 2288.53 932.988 2291.74 927.254C2295.07 921.521 2296.73 915.1 2296.73 907.99C2296.73 900.881 2295.07 894.46 2291.74 888.726C2288.53 882.993 2284 878.464 2278.15 875.138C2272.3 871.928 2265.65 870.322 2258.2 870.322ZM2239.8 1012.65C2245.76 1012.65 2250.69 1013.97 2254.59 1016.6C2258.49 1019.36 2262.79 1023.31 2267.49 1028.47C2270.93 1032.26 2273.79 1035.01 2276.09 1036.73C2278.5 1038.56 2281.19 1039.48 2284.17 1039.48C2288.41 1039.48 2291.74 1037.76 2294.15 1034.32C2296.67 1030.99 2297.93 1026.52 2297.93 1020.9C2297.93 1015.51 2296.79 1010.7 2294.49 1006.46C2292.31 1002.33 2289.22 998.831 2285.2 995.964L2297.42 975.152C2304.75 979.968 2310.43 986.447 2314.44 994.588C2318.46 1002.84 2320.46 1012.59 2320.46 1023.83C2320.46 1037.01 2317.65 1047.56 2312.04 1055.48C2306.42 1063.5 2298.62 1067.52 2288.64 1067.52C2283.94 1067.52 2279.81 1066.71 2276.26 1065.11C2272.71 1063.62 2269.67 1061.73 2267.14 1059.43C2264.74 1057.25 2261.93 1054.39 2258.72 1050.83C2254.93 1046.59 2251.72 1043.49 2249.08 1041.54C2246.56 1039.59 2243.47 1038.62 2239.8 1038.62V1012.65ZM2196.62 1025.72C2196.62 1021.02 2198.11 1017.06 2201.1 1013.85C2204.19 1010.76 2207.92 1009.21 2212.28 1009.21C2216.63 1009.21 2220.25 1010.76 2223.11 1013.85C2226.09 1016.95 2227.58 1020.9 2227.58 1025.72C2227.58 1030.54 2226.09 1034.49 2223.11 1037.59C2220.25 1040.68 2216.63 1042.23 2212.28 1042.23C2207.92 1042.23 2204.19 1040.63 2201.1 1037.42C2198.11 1034.32 2196.62 1030.42 2196.62 1025.72Z" fill="white"/>
</svg>
